<svg width="20" height="20" viewBox="0 0 20 20" fill="none" xmlns="http://www.w3.org/2000/svg">
<path fill-rule="evenodd" clip-rule="evenodd" d="M15.0195 10.3173C15.0354 11.3037 14.4223 12.9005 13.7501 13.4702C13.7228 14.7584 13.9295 15.7629 14.965 16.22C15.7712 16.5759 16.4775 16.3011 16.7068 15.5827C16.7871 15.3111 16.776 15.0209 16.675 14.7562L16.2958 14.7359C16.2322 15.7674 14.8265 15.5151 14.8083 14.7584C14.7989 14.517 14.8478 14.2767 14.9509 14.0578C15.054 13.8388 15.2083 13.6474 15.401 13.4995C15.6603 13.3371 15.9561 13.2409 16.2619 13.2193C16.5678 13.1976 16.8743 13.2514 17.1542 13.3756C18.0467 13.7427 18.6212 14.9341 18.0898 16.1187C17.4403 17.5668 16.0096 18.355 14.4427 17.6952C12.8757 17.0353 12.5442 15.8935 12.2876 14.6391C11.4609 15.2516 9.62829 15.2043 8.64043 14.9071C7.48679 15.6075 6.95312 16.3394 7.05077 17.3528C7.14388 18.2199 7.73205 18.6906 8.47919 18.5284C8.75635 18.4617 9.00419 18.3076 9.18546 18.0893L9.02195 17.7492C8.08859 18.1996 7.60715 16.8754 8.25891 16.4813C8.46483 16.3525 8.69875 16.2743 8.94125 16.2531C9.18376 16.232 9.42785 16.2685 9.65327 16.3597C9.92489 16.5016 10.157 16.7078 10.3289 16.96C10.5008 17.2122 10.6073 17.5027 10.6389 17.8055C10.7638 18.7536 10.0098 19.8437 8.7131 19.9788C7.12344 20.1477 5.72 19.3032 5.51561 17.6344C5.31123 15.9656 6.11968 15.1188 7.08484 14.2742C6.49038 13.9527 5.97046 13.5113 5.55858 12.9783C5.14671 12.4453 4.85202 11.8327 4.69353 11.1799C3.96683 10.7745 3.00849 10.4862 2.12509 11.1236C1.41202 11.637 1.29847 12.3802 1.8117 12.9387C2.00857 13.1426 2.26671 13.2777 2.54749 13.3238L2.75642 13.0086C1.88664 12.4365 2.81092 11.3555 3.47858 11.7204C3.69294 11.8318 3.87772 11.9918 4.01782 12.1875C4.15793 12.3832 4.2494 12.609 4.28476 12.8464C4.29764 13.1518 4.23408 13.4556 4.09974 13.7306C3.96541 14.0057 3.76449 14.2435 3.51491 14.4229C2.7496 15.0062 1.4211 14.9026 0.651251 13.8553C-0.288919 12.5739 -0.257126 11.0177 1.04867 9.9367C2.12282 9.05163 3.633 9.16424 4.53457 9.51331C4.53457 8.68454 4.76166 7.10358 6.30136 5.60593C6.22415 4.88527 5.9312 4.13982 5.09095 3.77048C4.28476 3.41465 3.5785 3.68941 3.34686 4.40782C3.26772 4.67957 3.27886 4.96936 3.37865 5.23434L3.7579 5.25461C3.82376 4.22315 5.22947 4.47538 5.24537 5.23209C5.25522 5.47308 5.20676 5.71291 5.10404 5.93153C5.00132 6.15015 4.84733 6.34122 4.65493 6.48875C4.39522 6.65113 4.09911 6.7474 3.79287 6.76901C3.48663 6.79062 3.17975 6.7369 2.89949 6.61262C2.00928 6.24553 1.46652 4.93256 1.99111 3.75021C2.6406 2.29986 4.38922 1.8517 5.60645 2.29536C6.87591 2.75929 7.6503 4.19613 7.92054 6.01807C7.28241 6.46849 6.3922 7.65759 6.24004 8.68905C5.87215 11.1956 7.19384 13.0108 9.87355 13.3689C11.6063 13.5941 13.0529 12.128 13.2663 10.7204C13.5139 9.03136 12.9075 7.75443 11.3542 7.75443C8.76988 7.75443 9.1355 9.8196 9.61921 10.1597C9.75319 10.1326 10.0098 10.0516 10.1143 10.029C9.88718 8.79264 11.6176 8.67779 11.8652 9.56286C11.9492 9.84502 11.9641 10.143 11.9088 10.432C11.8535 10.721 11.7296 10.9928 11.5472 11.2249C11.2896 11.4965 10.968 11.7004 10.6112 11.8184C10.2545 11.9363 9.87384 11.9645 9.50339 11.9005C8.34067 11.7316 7.30285 10.493 7.57082 8.93903C7.79791 7.63056 8.39971 6.79279 9.66917 6.16445C11.4859 5.26362 12.9893 3.87633 12.9893 2.64669C13.0043 2.46669 12.9754 2.28576 12.905 2.11917C12.8347 1.95257 12.725 1.80521 12.5851 1.6895C12.4453 1.57379 12.2794 1.49313 12.1016 1.45433C11.9237 1.41554 11.739 1.41974 11.5631 1.46659C11.2847 1.53691 11.0369 1.69497 10.8569 1.91701C10.9046 2.00709 10.9886 2.17375 11.0295 2.25257C11.9628 1.80215 12.4443 3.12638 11.7925 3.51825C11.5869 3.64773 11.3531 3.72655 11.1105 3.74809C10.8679 3.76964 10.6237 3.7333 10.3981 3.64211C10.1265 3.50021 9.89444 3.29399 9.72251 3.04177C9.55057 2.78954 9.4441 2.49911 9.41255 2.19627C9.28765 1.24814 10.0416 0.169386 11.3383 0.0207485C12.928 -0.145906 14.3314 0.696375 14.5381 2.36743C14.7447 4.03848 13.7364 5.16002 12.3807 6.23202C12.9621 6.41961 13.489 6.74422 13.9161 7.17804C14.3433 7.61186 14.658 8.14193 14.8333 8.72283C15.9302 9.3444 17.2314 9.47052 18.0126 8.91425C18.7257 8.40078 18.921 7.57877 18.3987 7.02025C18.1473 6.81566 17.8393 6.69158 17.5153 6.66442L17.3086 6.97971C18.1761 7.55174 17.2541 8.63049 16.5842 8.26791C16.3684 8.15575 16.1828 7.99397 16.0429 7.79611C15.903 7.59825 15.813 7.37005 15.7803 7.1306C15.767 6.82517 15.8304 6.52124 15.9647 6.24609C16.0991 5.97094 16.3003 5.73318 16.5501 5.55414C17.3154 4.9731 18.6984 5.07895 19.4887 6.1104C20.3131 7.1869 20.1428 9.29711 18.9619 10.0426C17.4313 11.011 16.3094 10.7272 15.0195 10.3173Z" fill="#F1D8C1"/>
</svg>
