<svg width="20" height="14" viewBox="0 0 20 14" fill="none" xmlns="http://www.w3.org/2000/svg">
<path fill-rule="evenodd" clip-rule="evenodd" d="M19.8491 9.47663C13.4196 16.5048 3.09075 14.1266 0.533693 10.5024C0.930531 9.43517 1.46183 8.42948 2.11321 7.51254L0 5.45918L0.982929 4.35746L3.00449 6.41653C3.61148 5.75854 4.29997 5.19049 5.05121 4.72787L3.36927 1.72475L4.63792 0.964949L6.28392 4.09913C7.15439 3.73656 8.07273 3.5187 9.00629 3.4533L9.04043 0H10.4582L10.3558 3.4609C11.3621 3.54415 12.3521 3.77889 13.2956 4.15802L14.8482 0.761702L16.0863 1.33155L14.6487 4.77725C15.4499 5.22122 16.2098 5.74399 16.9182 6.33865L18.8014 3.76292L20 4.78105L18.0126 7.35108C18.6714 8.01297 19.285 8.72325 19.8491 9.47663ZM4.59119 6.9047C3.87464 7.54815 3.24253 8.2898 2.71159 9.11002L3.12129 10.8994C4.07527 11.54 5.11129 12.0325 6.19766 12.362C4.72417 11.0152 4.20665 8.85739 4.59119 6.9047ZM12.5337 5.39649C10.6056 4.71647 8.68284 4.72407 6.92902 5.43638C4.75112 7.74428 5.60108 12.6697 9.86164 12.6697C13.77 12.6697 14.6936 7.68729 12.5337 5.39649ZM14.7799 6.5058C15.2417 8.35782 14.8877 10.4663 13.7305 11.9175C15.2801 11.2843 16.7407 10.4305 18.0719 9.37975C17.106 8.26495 15.998 7.29768 14.7799 6.5058ZM9.81671 11.1311C6.37197 11.1311 6.5283 5.92835 9.76101 5.92835C12.9937 5.92835 12.9542 11.1311 9.81671 11.1311Z" fill="#F1D8C1"/>
</svg>
